<mxfile host="app.diagrams.net" modified="2023-10-03T16:19:29.475Z" agent="Mozilla/5.0 (Windows NT 10.0; Win64; x64) AppleWebKit/537.36 (KHTML, like Gecko) Chrome/116.0.0.0 Safari/537.36 OPR/102.0.0.0 (Edition std-1)" etag="HBdvkKCf0bC-tae93NMs" version="21.3.8" type="google" pages="4">
  <diagram name="Diagrama" id="8bbd0ywaLyHZ3J73YPNQ">
    <mxGraphModel grid="1" page="1" gridSize="10" guides="1" tooltips="1" connect="1" arrows="1" fold="1" pageScale="1" pageWidth="827" pageHeight="1169" math="0" shadow="0">
      <root>
        <object label="" id="0">
          <mxCell />
        </object>
        <mxCell id="1" parent="0" />
        <mxCell id="rlP28RDaj0d5bKgRM90T-1" value="Usuario" style="shape=umlActor;verticalLabelPosition=bottom;verticalAlign=top;html=1;outlineConnect=0;" vertex="1" parent="1">
          <mxGeometry x="70" y="300" width="30" height="60" as="geometry" />
        </mxCell>
        <mxCell id="rlP28RDaj0d5bKgRM90T-2" value="Ver_Historial_De_Reservas" style="ellipse;whiteSpace=wrap;html=1;" vertex="1" parent="1">
          <mxGeometry x="180" y="220" width="160" height="70" as="geometry" />
        </mxCell>
        <mxCell id="rlP28RDaj0d5bKgRM90T-5" value="Reservar" style="ellipse;whiteSpace=wrap;html=1;" vertex="1" parent="1">
          <mxGeometry x="490" y="380" width="100" height="60" as="geometry" />
        </mxCell>
        <mxCell id="rlP28RDaj0d5bKgRM90T-9" value="Lista_De_Libros_Para_Reservar" style="swimlane;fontStyle=1;align=center;verticalAlign=middle;childLayout=stackLayout;horizontal=1;startSize=30;horizontalStack=0;resizeParent=0;resizeLast=1;container=0;collapsible=0;rounded=1;arcSize=30;swimlaneFillColor=#FFFCFC;dropTarget=0;" vertex="1" parent="1">
          <mxGeometry x="180" y="380" width="210" height="60" as="geometry" />
        </mxCell>
        <mxCell id="rlP28RDaj0d5bKgRM90T-10" value="Si lo encuentra interesante" style="text;html=1;strokeColor=none;fillColor=none;align=center;verticalAlign=middle;spacingLeft=4;spacingRight=4;whiteSpace=wrap;overflow=hidden;rotatable=0;fontColor=#000000;" vertex="1" parent="rlP28RDaj0d5bKgRM90T-9">
          <mxGeometry y="30" width="210" height="30" as="geometry" />
        </mxCell>
        <mxCell id="rlP28RDaj0d5bKgRM90T-11" value="si quiere" style="text;html=1;strokeColor=none;fillColor=none;align=center;verticalAlign=middle;spacingLeft=4;spacingRight=4;whiteSpace=wrap;overflow=hidden;rotatable=0;fontColor=#000000;" vertex="1" parent="rlP28RDaj0d5bKgRM90T-9">
          <mxGeometry y="60" width="210" as="geometry" />
        </mxCell>
        <mxCell id="rlP28RDaj0d5bKgRM90T-12" value="" style="endArrow=classic;html=1;rounded=0;exitX=0;exitY=0.5;exitDx=0;exitDy=0;entryX=1;entryY=0;entryDx=0;entryDy=0;" edge="1" parent="1" source="rlP28RDaj0d5bKgRM90T-5" target="rlP28RDaj0d5bKgRM90T-10">
          <mxGeometry width="50" height="50" relative="1" as="geometry">
            <mxPoint x="450" y="350" as="sourcePoint" />
            <mxPoint x="500" y="300" as="targetPoint" />
          </mxGeometry>
        </mxCell>
        <mxCell id="rlP28RDaj0d5bKgRM90T-13" value="&amp;lt;&amp;lt;extends&amp;gt;&amp;gt;" style="edgeLabel;html=1;align=center;verticalAlign=middle;resizable=0;points=[];" connectable="0" vertex="1" parent="1">
          <mxGeometry x="449.99621955564743" y="400.0004366813928" as="geometry">
            <mxPoint x="-6" y="-4" as="offset" />
          </mxGeometry>
        </mxCell>
        <mxCell id="rlP28RDaj0d5bKgRM90T-14" value="" style="endArrow=classic;html=1;rounded=0;entryX=0;entryY=0.5;entryDx=0;entryDy=0;" edge="1" parent="1" target="rlP28RDaj0d5bKgRM90T-2">
          <mxGeometry width="50" height="50" relative="1" as="geometry">
            <mxPoint x="110" y="300" as="sourcePoint" />
            <mxPoint x="80" y="310" as="targetPoint" />
          </mxGeometry>
        </mxCell>
        <mxCell id="rlP28RDaj0d5bKgRM90T-15" value="" style="endArrow=classic;html=1;rounded=0;entryX=0;entryY=0;entryDx=0;entryDy=0;" edge="1" parent="1" source="rlP28RDaj0d5bKgRM90T-1" target="rlP28RDaj0d5bKgRM90T-10">
          <mxGeometry width="50" height="50" relative="1" as="geometry">
            <mxPoint x="120" y="370" as="sourcePoint" />
            <mxPoint x="190" y="265" as="targetPoint" />
          </mxGeometry>
        </mxCell>
      </root>
    </mxGraphModel>
  </diagram>
  <diagram id="5Tt-wHoTVm6kTGx1YyK-" name="Interfaz Historial Reservas">
    <mxGraphModel grid="1" page="1" gridSize="10" guides="1" tooltips="1" connect="1" arrows="1" fold="1" pageScale="1" pageWidth="827" pageHeight="1169" math="0" shadow="0">
      <root>
        <mxCell id="0" />
        <mxCell id="1" parent="0" />
        <mxCell id="G_y9MyFMC9i7A-GmETFA-1" value="BIBLIOTECA" style="text;html=1;align=center;verticalAlign=middle;resizable=0;points=[];autosize=1;strokeColor=none;fillColor=none;spacing=2;fontSize=20;fontStyle=1" vertex="1" parent="1">
          <mxGeometry x="295" y="70" width="150" height="40" as="geometry" />
        </mxCell>
        <mxCell id="G_y9MyFMC9i7A-GmETFA-2" value="Gesti칩n de Reservas" style="rounded=1;whiteSpace=wrap;html=1;" vertex="1" parent="1">
          <mxGeometry x="150" y="150" width="90" height="30" as="geometry" />
        </mxCell>
        <mxCell id="G_y9MyFMC9i7A-GmETFA-3" value="Rese침as" style="rounded=1;whiteSpace=wrap;html=1;" vertex="1" parent="1">
          <mxGeometry x="280" y="150" width="80" height="30" as="geometry" />
        </mxCell>
        <mxCell id="G_y9MyFMC9i7A-GmETFA-4" value="Panel de Amigos" style="rounded=1;whiteSpace=wrap;html=1;" vertex="1" parent="1">
          <mxGeometry x="400" y="150" width="90" height="30" as="geometry" />
        </mxCell>
        <mxCell id="G_y9MyFMC9i7A-GmETFA-5" value="Foros" style="rounded=1;whiteSpace=wrap;html=1;" vertex="1" parent="1">
          <mxGeometry x="530" y="150" width="80" height="30" as="geometry" />
        </mxCell>
        <mxCell id="G_y9MyFMC9i7A-GmETFA-7" value="Libro 1" style="text;html=1;align=center;verticalAlign=middle;resizable=0;points=[];autosize=1;strokeColor=none;fillColor=none;" vertex="1" parent="1">
          <mxGeometry x="220" y="288" width="60" height="30" as="geometry" />
        </mxCell>
        <mxCell id="G_y9MyFMC9i7A-GmETFA-8" value="Libro 2" style="text;html=1;align=center;verticalAlign=middle;resizable=0;points=[];autosize=1;strokeColor=none;fillColor=none;" vertex="1" parent="1">
          <mxGeometry x="220" y="330" width="60" height="30" as="geometry" />
        </mxCell>
        <mxCell id="G_y9MyFMC9i7A-GmETFA-9" value="Libro 3" style="text;html=1;align=center;verticalAlign=middle;resizable=0;points=[];autosize=1;strokeColor=none;fillColor=none;" vertex="1" parent="1">
          <mxGeometry x="220" y="372" width="60" height="30" as="geometry" />
        </mxCell>
        <mxCell id="G_y9MyFMC9i7A-GmETFA-12" value="Historial de reservas" style="text;html=1;align=center;verticalAlign=middle;resizable=0;points=[];autosize=1;strokeColor=none;fillColor=none;fontSize=14;fontStyle=1" vertex="1" parent="1">
          <mxGeometry x="160" y="238" width="160" height="30" as="geometry" />
        </mxCell>
        <mxCell id="G_y9MyFMC9i7A-GmETFA-14" value="3/05/2313" style="text;html=1;align=center;verticalAlign=middle;resizable=0;points=[];autosize=1;strokeColor=none;fillColor=none;" vertex="1" parent="1">
          <mxGeometry x="300" y="288" width="80" height="30" as="geometry" />
        </mxCell>
        <mxCell id="G_y9MyFMC9i7A-GmETFA-15" value="3/05/2340" style="text;html=1;align=center;verticalAlign=middle;resizable=0;points=[];autosize=1;strokeColor=none;fillColor=none;" vertex="1" parent="1">
          <mxGeometry x="300" y="330" width="80" height="30" as="geometry" />
        </mxCell>
        <mxCell id="G_y9MyFMC9i7A-GmETFA-16" value="3/05/2432" style="text;html=1;align=center;verticalAlign=middle;resizable=0;points=[];autosize=1;strokeColor=none;fillColor=none;" vertex="1" parent="1">
          <mxGeometry x="300" y="372" width="80" height="30" as="geometry" />
        </mxCell>
        <mxCell id="aRdNdRQWxRqsHX5gGlEQ-2" value="" style="swimlane;startSize=0;" vertex="1" parent="1">
          <mxGeometry x="140" y="70" width="480" height="340" as="geometry" />
        </mxCell>
      </root>
    </mxGraphModel>
  </diagram>
  <diagram id="NUo6D5zrEw9QIr_jhlUB" name="Interfaz Gesti칩n Reservas">
    <mxGraphModel grid="1" page="1" gridSize="10" guides="1" tooltips="1" connect="1" arrows="1" fold="1" pageScale="1" pageWidth="827" pageHeight="1169" math="0" shadow="0">
      <root>
        <mxCell id="0" />
        <mxCell id="1" parent="0" />
        <mxCell id="qRXmNHUty-KZhROUL5ia-1" value="BIBLIOTECA" style="text;html=1;align=center;verticalAlign=middle;resizable=0;points=[];autosize=1;strokeColor=none;fillColor=none;spacing=2;fontSize=20;" vertex="1" parent="1">
          <mxGeometry x="300" y="70" width="140" height="40" as="geometry" />
        </mxCell>
        <mxCell id="7oV5ZRDfgetHmNQK-MwS-1" value="Rese침as" style="rounded=1;whiteSpace=wrap;html=1;" vertex="1" parent="1">
          <mxGeometry x="205" y="130" width="80" height="30" as="geometry" />
        </mxCell>
        <mxCell id="7oV5ZRDfgetHmNQK-MwS-2" value="Panel de Amigos" style="rounded=1;whiteSpace=wrap;html=1;" vertex="1" parent="1">
          <mxGeometry x="325" y="130" width="90" height="30" as="geometry" />
        </mxCell>
        <mxCell id="7oV5ZRDfgetHmNQK-MwS-3" value="Foros" style="rounded=1;whiteSpace=wrap;html=1;" vertex="1" parent="1">
          <mxGeometry x="455" y="130" width="80" height="30" as="geometry" />
        </mxCell>
        <mxCell id="7oV5ZRDfgetHmNQK-MwS-4" value="Historial de Reservas" style="rounded=1;whiteSpace=wrap;html=1;" vertex="1" parent="1">
          <mxGeometry x="250" y="220" width="90" height="40" as="geometry" />
        </mxCell>
        <mxCell id="7oV5ZRDfgetHmNQK-MwS-5" value="Lista De Libros Para Reservar" style="rounded=1;whiteSpace=wrap;html=1;" vertex="1" parent="1">
          <mxGeometry x="380" y="220" width="100" height="40" as="geometry" />
        </mxCell>
        <mxCell id="EkbWd76cEF9XptEN2_Kv-1" value="" style="swimlane;startSize=0;" vertex="1" parent="1">
          <mxGeometry x="190" y="70" width="360" height="210" as="geometry" />
        </mxCell>
        <mxCell id="o6F-XkVIaaeLTKnXEN43-1" value="BIBLIOTECA" style="text;html=1;align=center;verticalAlign=middle;resizable=0;points=[];autosize=1;strokeColor=none;fillColor=none;spacing=2;fontSize=20;fontStyle=1" vertex="1" parent="1">
          <mxGeometry x="295" y="70" width="150" height="40" as="geometry" />
        </mxCell>
      </root>
    </mxGraphModel>
  </diagram>
  <diagram id="BTqqGAkG0Jk1rDJaKmj_" name="Interfaz Lista de libros para reservar">
    <mxGraphModel grid="1" page="1" gridSize="10" guides="1" tooltips="1" connect="1" arrows="1" fold="1" pageScale="1" pageWidth="827" pageHeight="1169" math="0" shadow="0">
      <root>
        <mxCell id="0" />
        <mxCell id="1" parent="0" />
        <mxCell id="JcSEJUpzbXPJIjaxoFjp-1" value="BIBLIOTECA" style="text;html=1;align=center;verticalAlign=middle;resizable=0;points=[];autosize=1;strokeColor=none;fillColor=none;spacing=2;fontSize=20;" vertex="1" parent="1">
          <mxGeometry x="300" y="70" width="140" height="40" as="geometry" />
        </mxCell>
        <mxCell id="JcSEJUpzbXPJIjaxoFjp-2" value="Gesti칩n de Reservas" style="rounded=1;whiteSpace=wrap;html=1;" vertex="1" parent="1">
          <mxGeometry x="150" y="150" width="90" height="30" as="geometry" />
        </mxCell>
        <mxCell id="JcSEJUpzbXPJIjaxoFjp-3" value="Rese침as" style="rounded=1;whiteSpace=wrap;html=1;" vertex="1" parent="1">
          <mxGeometry x="280" y="150" width="80" height="30" as="geometry" />
        </mxCell>
        <mxCell id="JcSEJUpzbXPJIjaxoFjp-4" value="Panel de Amigos" style="rounded=1;whiteSpace=wrap;html=1;" vertex="1" parent="1">
          <mxGeometry x="400" y="150" width="90" height="30" as="geometry" />
        </mxCell>
        <mxCell id="JcSEJUpzbXPJIjaxoFjp-5" value="Foros" style="rounded=1;whiteSpace=wrap;html=1;" vertex="1" parent="1">
          <mxGeometry x="530" y="150" width="80" height="30" as="geometry" />
        </mxCell>
        <mxCell id="cu7gCCw_qnAfsGFmk6as-1" value="Libro 1" style="whiteSpace=wrap;html=1;aspect=fixed;" vertex="1" parent="1">
          <mxGeometry x="310" y="268" width="80" height="80" as="geometry" />
        </mxCell>
        <mxCell id="cu7gCCw_qnAfsGFmk6as-2" value="Libro 2" style="whiteSpace=wrap;html=1;aspect=fixed;" vertex="1" parent="1">
          <mxGeometry x="414" y="268" width="80" height="80" as="geometry" />
        </mxCell>
        <mxCell id="cu7gCCw_qnAfsGFmk6as-3" value="Libro 3" style="whiteSpace=wrap;html=1;aspect=fixed;" vertex="1" parent="1">
          <mxGeometry x="310" y="370" width="80" height="80" as="geometry" />
        </mxCell>
        <mxCell id="cu7gCCw_qnAfsGFmk6as-4" value="Libro 4" style="whiteSpace=wrap;html=1;aspect=fixed;" vertex="1" parent="1">
          <mxGeometry x="414" y="370" width="80" height="80" as="geometry" />
        </mxCell>
        <mxCell id="PjueX5fiU9c1BirmmiBM-1" value="BIBLIOTECA" style="text;html=1;align=center;verticalAlign=middle;resizable=0;points=[];autosize=1;strokeColor=none;fillColor=none;spacing=2;fontSize=20;fontStyle=1" vertex="1" parent="1">
          <mxGeometry x="295" y="70" width="150" height="40" as="geometry" />
        </mxCell>
        <mxCell id="N-Bs53Nd0TtaTcBhQkkB-1" value="" style="swimlane;startSize=0;" vertex="1" parent="1">
          <mxGeometry x="140" y="70" width="480" height="400" as="geometry" />
        </mxCell>
        <mxCell id="ZvS0-msSuYbkc4ycHzPX-1" value="Libros disponibles para reservar" style="text;html=1;align=center;verticalAlign=middle;resizable=0;points=[];autosize=1;strokeColor=none;fillColor=none;fontSize=14;fontStyle=1" vertex="1" parent="N-Bs53Nd0TtaTcBhQkkB-1">
          <mxGeometry x="10" y="150" width="240" height="30" as="geometry" />
        </mxCell>
      </root>
    </mxGraphModel>
  </diagram>
</mxfile>
